<svg width="607" height="96" viewBox="0 0 607 96" fill="none" xmlns="http://www.w3.org/2000/svg">
<circle cx="62.9288" cy="47.8165" r="44.8165" fill="url(#paint0_linear_2620_122)"/>
<path d="M21.2383 14.3971C23.2911 16.2033 24.7912 18.4807 26.5281 20.601C28.2651 22.7214 30.4758 24.6061 33.2391 25.0773C34.5023 25.3129 35.8445 25.3914 37.1867 25.5485C38.45 25.7055 40.108 25.8626 40.5028 26.962C40.5817 27.1191 40.5817 27.2762 40.5817 27.4332C40.6607 28.2185 39.8711 28.7682 40.2659 29.7106C42.0818 31.5954 45.3189 34.0298 46.5032 35.4434C48.1612 37.4066 48.398 39.4485 48.398 39.4485C48.398 39.4485 60.5567 37.6422 63.7938 37.9564C63.7938 37.9564 68.8468 36.3072 72.2417 38.1134C73.0313 38.5846 73.9787 38.8202 74.8472 38.8987C75.3999 38.9773 75.8736 38.9773 76.4262 38.9773C76.4262 38.2705 76.5052 37.6422 76.6631 37.2496C76.7421 37.0925 76.821 36.9355 76.9 36.8569C77.7684 36.1502 79.1896 36.1502 79.1896 36.1502L81.0055 35.9931L82.5846 35.836L93.6379 34.6581L95.217 34.501L96.4802 34.3439C96.4802 34.3439 99.7963 34.0298 100.981 36.8569L102.56 36.6213L103.033 37.2496H103.902L104.139 37.4852C104.218 37.9564 104.297 38.4275 104.218 38.8202L103.981 39.0558L103.27 39.1343L102.875 39.7626C102.954 39.8411 102.954 39.9982 103.033 40.0767C103.902 39.9982 104.77 39.527 105.086 39.2914C105.402 39.1343 105.481 38.7417 105.876 38.1134C106.112 37.7993 106.428 37.4066 106.902 37.014C107.139 36.7784 107.455 36.5428 107.849 36.3072C111.086 34.1869 114.876 36.5428 115.35 39.4485C115.587 40.862 115.113 41.8044 114.56 42.5112L115.034 44.3174C115.271 45.2597 114.324 45.9665 114.324 45.9665C114.324 45.9665 113.85 46.2806 112.902 46.9089C111.955 47.4586 111.086 46.9089 111.086 46.9089L110.218 46.1236C110.218 46.5162 110.06 46.7518 109.823 46.9874C109.823 48.1654 108.955 49.3434 108.007 49.8931C106.902 50.5213 105.481 50.2857 104.533 49.5004C103.981 48.9507 103.665 48.2439 103.428 47.6157C103.349 48.0869 103.349 48.6366 103.27 49.0292C103.744 50.4428 104.454 52.8772 104.691 54.6834C105.086 57.275 108.086 62.458 108.086 62.458L117.64 67.8766C117.64 67.8766 118.508 67.1699 118.824 67.0913C119.14 67.0128 119.692 66.9343 119.692 66.9343C119.692 66.9343 120.403 66.8557 120.482 67.1699C120.561 67.484 119.929 67.7981 119.929 67.7981L121.271 68.8975L122.535 69.4473L123.324 69.9185C123.324 69.9185 124.114 70.4682 123.877 70.7823C123.64 71.0964 123.008 70.6252 123.008 70.6252L122.298 70.3896L121.903 70.2326L121.824 70.3896L123.008 71.5676L123.798 72.51C123.798 72.51 124.114 72.9812 123.956 73.2168C123.798 73.4523 123.403 73.2167 123.087 72.9812C122.771 72.667 122.377 72.3529 122.377 72.3529L121.666 71.8032L121.587 71.8817L122.298 72.7456L122.85 73.6094C122.85 73.6094 123.482 74.3947 123.087 74.7088C122.693 75.023 122.219 74.0806 122.219 74.0806L121.666 73.3738C121.666 73.3738 121.035 72.8241 121.035 72.7456L120.877 72.8241L121.192 73.4523L121.35 74.3162C121.35 74.3162 121.508 75.2586 121.271 75.18C121.035 75.1015 120.719 75.023 120.561 74.3162L120.166 73.6879L119.85 73.3738C119.85 73.3738 118.192 72.5885 117.561 71.7247C116.929 70.9393 116.613 70.7038 116.613 70.6252C116.613 70.6252 107.06 68.0337 104.849 66.2275C102.954 64.6569 98.2172 56.3326 96.954 53.9767C95.2959 54.5264 93.48 54.8405 91.5852 54.9976C91.5852 55.3902 91.5852 55.7829 91.5852 55.8614C91.5852 56.097 91.6641 57.1179 91.7431 57.5891C91.822 58.0603 91.901 58.9241 91.5852 58.8456C91.2694 58.7671 91.1904 58.6885 91.1904 58.6885L91.1115 59.788C91.1115 59.788 91.0325 60.8874 90.5588 60.6518C90.0851 60.4947 90.243 59.2382 90.243 59.2382V58.1388L90.164 56.9609L89.8482 56.8823L89.5324 58.0603L89.2166 59.1597C89.2166 59.1597 88.9797 60.7303 88.4271 60.4162C87.8744 60.1021 88.2692 58.9241 88.2692 58.9241L88.4271 57.6676L88.506 56.4111L88.1902 56.9609L87.7165 57.9032C87.7165 57.9032 87.3217 59.3953 86.7691 59.1597C86.2164 58.9241 86.7691 57.8247 86.7691 57.8247L87.1638 56.8823L87.6375 55.6258L87.4007 55.3902L86.6111 56.4897C86.6111 56.4897 86.0585 57.5106 85.7427 57.1964C85.4269 56.8823 86.0585 56.097 86.0585 56.097L86.6901 54.9976C84.9531 54.919 83.3741 54.8405 82.1898 54.6834C80.9265 54.5264 80.137 54.4479 80.137 54.4479C80.137 54.4479 79.8212 54.4479 79.3475 54.3693C78.0843 54.2908 75.6367 54.1337 75.163 54.3693C74.5314 54.6049 63.399 59.945 60.2409 60.1806C57.0828 60.4162 49.1086 61.6727 49.1086 61.6727C49.1086 61.6727 39.9501 60.3377 33.7918 59.6309C32.3706 59.4738 31.1074 59.3168 30.1599 59.2382C29.6073 59.6309 28.9757 59.8665 28.5019 59.8665C26.9229 59.8665 26.6071 60.4947 26.2913 60.5733C26.0544 60.6518 24.3174 61.7512 23.1332 61.9868C21.4751 63.636 19.8171 66.0704 18.1591 69.2117C15.1589 74.8659 8.13213 77.5359 6.00041 77.7715C5.76356 71.4105 4.26345 65.9134 0 62.1439C0 62.1439 7.89527 64.971 13.343 60.4162C16.4222 57.8247 20.8435 56.8823 24.6332 56.6467C27.3176 56.4897 30.7126 53.1128 31.818 54.1337C31.818 54.1337 32.7654 54.9976 32.9233 55.7829C34.7392 55.7044 38.2131 55.6258 39.3185 55.2332C40.5817 54.762 45.8715 54.3693 49.1086 55.4688L63.6359 47.8513C58.5829 47.4586 46.5032 46.2806 44.6872 44.3174C42.3187 41.8044 39.8711 37.0925 38.5289 34.8937C37.8184 33.7942 36.713 32.6163 35.8445 31.6739C35.5287 31.3598 35.2129 31.0456 34.8971 30.7315C33.5549 29.9462 30.2389 30.7315 28.6598 29.3965C26.6071 29.0038 24.5543 28.0615 22.6594 27.1191C20.3698 26.0197 18.1591 24.8417 15.7116 24.2135C13.2641 23.5852 10.5007 23.4281 8.29004 24.6061C10.7376 20.6796 11.764 15.8106 11.0534 11.1773C14.6063 10.8632 18.396 12.0412 21.2383 14.3971ZM105.402 48.558C105.876 48.9507 106.586 49.1078 107.139 48.7936C107.692 48.4795 108.165 47.7727 108.165 47.3015C107.849 47.1445 107.613 46.8304 107.455 46.5948C106.428 46.5948 105.639 45.8095 105.639 45.8095C105.165 45.888 104.77 45.9665 104.454 46.1236C104.454 46.2021 104.454 46.2021 104.454 46.2806V46.4377C104.77 47.3015 104.928 48.0869 105.402 48.558Z" fill="#044582"/>
<path d="M165.36 37.2C162.453 37.2 160.16 36.8267 158.48 36.08C156.8 35.3067 155.6 34.1467 154.88 32.6C154.16 31.0533 153.8 29.1067 153.8 26.76V8.4H160.2V26.76C160.2 28.7867 160.667 30.1733 161.6 30.92C162.56 31.64 164.173 32 166.44 32H174.16C176.427 32 178.027 31.64 178.96 30.92C179.92 30.1733 180.4 28.7867 180.4 26.76V8.4H186.8V26.76C186.8 29.1067 186.44 31.0533 185.72 32.6C185 34.1467 183.8 35.3067 182.12 36.08C180.44 36.8267 178.147 37.2 175.24 37.2H165.36ZM192.394 37V8.4H198.874L219.114 28.96V8.4H225.514V37H219.034L198.794 16.4V37H192.394ZM231.105 37V8.4H235.825L248.625 8.36C253.798 8.36 257.811 9.57333 260.665 12C263.518 14.4267 264.945 17.9867 264.945 22.68C264.945 27.3733 263.518 30.9333 260.665 33.36C257.811 35.7867 253.798 37 248.625 37H231.105ZM248.185 13.56H237.505V31.8H248.185C251.545 31.8 254.091 31.0667 255.825 29.6C257.558 28.1333 258.425 25.8267 258.425 22.68C258.425 19.5067 257.558 17.2 255.825 15.76C254.091 14.2933 251.545 13.56 248.185 13.56ZM268.956 37V8.4H300.316V13.6H275.356V19.92H297.996V25.12H275.356V31.8H300.316V37H268.956ZM304.698 37V8.4H328.658C331.618 8.4 333.912 9.14667 335.538 10.64C337.192 12.1333 338.018 14.4 338.018 17.44C338.018 20.0267 337.418 22.0533 336.218 23.52C335.018 24.9867 333.312 25.9067 331.098 26.28L337.698 37H330.418L324.298 26.48H311.098V37H304.698ZM327.898 13.6H311.098V21.24L327.898 21.28C329.072 21.28 329.965 20.9867 330.578 20.4C331.218 19.8133 331.538 18.8267 331.538 17.44C331.538 16.0267 331.218 15.04 330.578 14.48C329.965 13.8933 329.072 13.6 327.898 13.6ZM344.013 37L340.813 8.4H347.213L349.573 29.28L357.533 23.16V8.4H363.933V23.2L371.813 29.28L374.213 8.4H380.613L377.413 37H372.053L360.733 27.84L349.372 37H344.013ZM381.4 37L394.28 8.4H404.16L417.04 37H410.08L407.36 30.96H391.08L388.36 37H381.4ZM393.4 25.76H405.04L399.48 13.4H398.96L393.4 25.76ZM415.261 22.88V8.4H450.461V22.88H443.981V13.6H435.261V37H428.861V13.6H421.741V22.88H415.261ZM455.05 37V8.4H486.41V13.6H461.45V19.92H484.09V25.12H461.45V31.8H486.41V37H455.05ZM490.792 37V8.4H514.752C517.712 8.4 520.006 9.14667 521.632 10.64C523.286 12.1333 524.112 14.4 524.112 17.44C524.112 20.0267 523.512 22.0533 522.312 23.52C521.112 24.9867 519.406 25.9067 517.192 26.28L523.792 37H516.512L510.392 26.48H497.192V37H490.792ZM513.992 13.6H497.192V21.24L513.992 21.28C515.166 21.28 516.059 20.9867 516.672 20.4C517.312 19.8133 517.632 18.8267 517.632 17.44C517.632 16.0267 517.312 15.04 516.672 14.48C516.059 13.8933 515.166 13.6 513.992 13.6ZM152.88 85.2V80L175.88 80.04C177.053 80.04 177.947 79.7733 178.56 79.24C179.2 78.68 179.52 77.7867 179.52 76.56C179.52 75.3333 179.2 74.4533 178.56 73.92C177.947 73.36 177.053 73.08 175.88 73.08H161.56C158.6 73.08 156.293 72.3733 154.64 70.96C153.013 69.52 152.2 67.4133 152.2 64.64C152.2 61.8667 153.013 59.7733 154.64 58.36C156.293 56.92 158.6 56.2 161.56 56.2H184.04V61.4L162.24 61.36C161.093 61.36 160.2 61.6267 159.56 62.16C158.92 62.6667 158.6 63.4933 158.6 64.64C158.6 65.7867 158.92 66.6267 159.56 67.16C160.2 67.6667 161.093 67.92 162.24 67.92H176.56C179.52 67.92 181.813 68.6533 183.44 70.12C185.093 71.56 185.92 73.7067 185.92 76.56C185.92 79.3867 185.093 81.5333 183.44 83C181.813 84.4667 179.52 85.2 176.56 85.2H152.88ZM201.493 85.2C198.586 85.2 196.293 84.8267 194.613 84.08C192.933 83.3067 191.733 82.1467 191.013 80.6C190.293 79.0533 189.933 77.1067 189.933 74.76V56.4H196.333V74.76C196.333 76.7867 196.799 78.1733 197.733 78.92C198.693 79.64 200.306 80 202.573 80H210.293C212.559 80 214.159 79.64 215.093 78.92C216.053 78.1733 216.533 76.7867 216.533 74.76V56.4H222.933V74.76C222.933 77.1067 222.573 79.0533 221.853 80.6C221.133 82.1467 219.933 83.3067 218.253 84.08C216.573 84.8267 214.279 85.2 211.373 85.2H201.493ZM228.527 85V56.4H252.487C255.447 56.4 257.74 57.1467 259.367 58.64C261.02 60.1333 261.847 62.4 261.847 65.44C261.847 68.0267 261.247 70.0533 260.047 71.52C258.847 72.9867 257.14 73.9067 254.927 74.28L261.527 85H254.247L248.127 74.48H234.927V85H228.527ZM251.727 61.6H234.927V69.24L251.727 69.28C252.9 69.28 253.793 68.9867 254.407 68.4C255.047 67.8133 255.367 66.8267 255.367 65.44C255.367 64.0267 255.047 63.04 254.407 62.48C253.793 61.8933 252.9 61.6 251.727 61.6ZM275.521 85L262.641 56.4H269.601L280.201 80H280.721L291.321 56.4H298.281L285.401 85H275.521ZM301.066 85V56.4H332.426V61.6H307.466V67.92H330.106V73.12H307.466V79.8H332.426V85H301.066ZM349.168 85V74.8L334.008 56.4H341.928L352.368 69.36L362.768 56.4H370.688L355.608 74.76V85H349.168Z" fill="#044582"/>
<defs>
<linearGradient id="paint0_linear_2620_122" x1="62.9288" y1="3" x2="62.9288" y2="92.633" gradientUnits="userSpaceOnUse">
<stop stop-color="#C8F2FF"/>
<stop offset="1" stop-color="#4EB4D3"/>
<stop offset="1.0001" stop-color="#72D2F0"/>
</linearGradient>
</defs>
</svg>
