<?xml version="1.0" encoding="UTF-8" standalone="no"?>
<svg
   viewBox="0 0 82 82"
   fill="none"
   x="0px"
   y="0px"
   version="1.1"
   id="svg2"
   sodipodi:docname="noun-apply-6567430.svg"
   width="82"
   height="82"
   inkscape:version="1.3.2 (1:1.3.2+202311252150+091e20ef0f)"
   xmlns:inkscape="http://www.inkscape.org/namespaces/inkscape"
   xmlns:sodipodi="http://sodipodi.sourceforge.net/DTD/sodipodi-0.dtd"
   xmlns="http://www.w3.org/2000/svg"
   xmlns:svg="http://www.w3.org/2000/svg">
  <defs
     id="defs2" />
  <sodipodi:namedview
     id="namedview2"
     pagecolor="#ffffff"
     bordercolor="#000000"
     borderopacity="0.25"
     inkscape:showpageshadow="2"
     inkscape:pageopacity="0.0"
     inkscape:pagecheckerboard="0"
     inkscape:deskcolor="#d1d1d1"
     inkscape:zoom="5.2125"
     inkscape:cx="40.671463"
     inkscape:cy="56.594724"
     inkscape:window-width="1920"
     inkscape:window-height="1016"
     inkscape:window-x="0"
     inkscape:window-y="0"
     inkscape:window-maximized="1"
     inkscape:current-layer="svg2" />
  <path
     fill-rule="evenodd"
     clip-rule="evenodd"
     d="M 5,41 C 5,21.1177 21.1177,5 41,5 60.8823,5 77,21.1177 77,41 77,60.8823 60.8823,77 41,77 21.1177,77 5,60.8823 5,41 Z M 41,0 C 18.3563,0 0,18.3563 0,41 0,63.6437 18.3563,82 41,82 63.6437,82 82,63.6437 82,41 82,18.3563 63.6437,0 41,0 Z m 19.2673,34.2682 c 0.9766,-0.9761 0.977,-2.559 9e-4,-3.5355 -0.9761,-0.9766 -2.559,-0.977 -3.5355,-9e-4 L 38.9038,48.5521 c -0.781,0.7806 -2.0468,0.7806 -2.8278,0 l -7.8087,-7.8049 c -0.9765,-0.9761 -2.5594,-0.9757 -3.5355,8e-4 -0.9761,0.9766 -0.9757,2.5595 9e-4,3.5356 l 7.8086,7.8049 c 2.7334,2.7321 7.1638,2.7321 9.8972,0 z"
     fill="#000000"
     id="path1"
     style="fill:#ffffff" />
</svg>
