<?xml version="1.0" encoding="UTF-8" standalone="no"?>
<svg
   viewBox="0 0 21.500999 21.560064"
   x="0px"
   y="0px"
   version="1.1"
   id="svg2"
   sodipodi:docname="contact.svg"
   width="21.500999"
   height="21.560064"
   inkscape:version="1.3.2 (1:1.3.2+202311252150+091e20ef0f)"
   xmlns:inkscape="http://www.inkscape.org/namespaces/inkscape"
   xmlns:sodipodi="http://sodipodi.sourceforge.net/DTD/sodipodi-0.dtd"
   xmlns="http://www.w3.org/2000/svg"
   xmlns:svg="http://www.w3.org/2000/svg"
   xmlns:rdf="http://www.w3.org/1999/02/22-rdf-syntax-ns#"
   xmlns:cc="http://creativecommons.org/ns#"
   xmlns:dc="http://purl.org/dc/elements/1.1/">
  <defs
     id="defs2" />
  <sodipodi:namedview
     id="namedview2"
     pagecolor="#ffffff"
     bordercolor="#000000"
     borderopacity="0.25"
     inkscape:showpageshadow="2"
     inkscape:pageopacity="0.0"
     inkscape:pagecheckerboard="0"
     inkscape:deskcolor="#d1d1d1"
     inkscape:zoom="6.95"
     inkscape:cx="-17.266187"
     inkscape:cy="-9.6402878"
     inkscape:window-width="1920"
     inkscape:window-height="1016"
     inkscape:window-x="0"
     inkscape:window-y="0"
     inkscape:window-maximized="1"
     inkscape:current-layer="svg2" />
  <title
     id="title1">Message</title>
  <g
     data-name="01"
     id="g1"
     transform="translate(-1.24949,-1.22)"
     style="fill:#044582;fill-opacity:1">
    <path
       d="m 16.00049,1.22 h -8 c -4.416,0 -6.75,2.334 -6.75,6.74951 l -0.001,5 c 0,5.6211 2.583,6.75049 6.75,6.75049 h 0.49707 a 0.466,0.466 0 0 1 0.2041,0.1001 l 1.5,2 a 2.16718,2.16718 0 0 0 3.59961,0 l 1.501,-2.00049 A 0.24836,0.24836 0 0 1 15.50049,19.72 h 0.499 c 4.416,0 6.75,-2.334 6.75,-6.74951 l 10e-4,-5 c 0,-4.41605 -2.33399,-6.75049 -6.75,-6.75049 z m 5.249,11.75049 c 0,3.58154 -1.668,5.24951 -5.25,5.24951 h -0.499 a 1.75712,1.75712 0 0 0 -1.39942,0.69971 l -1.5,2 a 0.69163,0.69163 0 0 1 -1.20117,0 l -1.5,-2 A 1.859,1.859 0 0 0 8.50049,18.22 h -0.501 c -3.70215,0 -5.25,-0.72949 -5.25,-5.25049 l 10e-4,-5 c 0,-3.58154 1.668,-5.24951 5.25,-5.24951 h 8 c 3.582,0 5.25,1.66846 5.25,5.25049 z M 13.00049,10.97 a 0.99724,0.99724 0 0 1 -0.99707,1 h -0.0059 a 1,1 0 1 1 1.00293,-1 z m 4,0 a 0.99724,0.99724 0 0 1 -0.99707,1 h -0.0059 a 1,1 0 1 1 1.00293,-1 z m -8,0 a 0.99724,0.99724 0 0 1 -0.99707,1 H 7.99756 a 1,1 0 1 1 1.00293,-1 z"
       id="path1"
       style="fill:#044582;fill-opacity:1" />
  </g>
  <metadata
     id="metadata2">
    <rdf:RDF>
      <cc:Work
         rdf:about="">
        <dc:title>Message</dc:title>
      </cc:Work>
    </rdf:RDF>
  </metadata>
</svg>
