<?xml version="1.0" encoding="UTF-8" standalone="no"?>
<svg
   data-name="Layer 1"
   viewBox="0 0 67 67"
   x="0px"
   y="0px"
   version="1.1"
   id="svg3"
   sodipodi:docname="edit.svg"
   width="67"
   height="67"
   inkscape:version="1.3.2 (1:1.3.2+202311252150+091e20ef0f)"
   xmlns:inkscape="http://www.inkscape.org/namespaces/inkscape"
   xmlns:sodipodi="http://sodipodi.sourceforge.net/DTD/sodipodi-0.dtd"
   xmlns="http://www.w3.org/2000/svg"
   xmlns:svg="http://www.w3.org/2000/svg">
  <sodipodi:namedview
     id="namedview3"
     pagecolor="#ffffff"
     bordercolor="#000000"
     borderopacity="0.25"
     inkscape:showpageshadow="2"
     inkscape:pageopacity="0.0"
     inkscape:pagecheckerboard="0"
     inkscape:deskcolor="#d1d1d1"
     inkscape:zoom="6.672"
     inkscape:cx="33.573141"
     inkscape:cy="46.013189"
     inkscape:window-width="1920"
     inkscape:window-height="1016"
     inkscape:window-x="0"
     inkscape:window-y="0"
     inkscape:window-maximized="1"
     inkscape:current-layer="svg3" />
  <defs
     id="defs1">
    <style
       id="style1">
      .cls-1 {
        stroke-width: 0px;
      }
    </style>
  </defs>
  <path
     class="cls-1"
     d="m 64.5,15.5 c 0,-7.17 -5.83,-13 -13,-13 h -34 c -7.17,0 -13,5.83 -13,13 v 10 c 0,1.65 1.35,3 3,3 1.65,0 3,-1.35 3,-3 v -10 c 0,-3.86 3.14,-7 7,-7 h 34 c 3.86,0 7,3.14 7,7 v 34 c 0,3.86 -3.14,7 -7,7 h -10 c -1.65,0 -3,1.35 -3,3 0,1.65 1.35,3 3,3 h 10 c 7.17,0 13,-5.83 13,-13 z"
     id="path1"
     style="fill:#ffffff;stroke:#ffffff;stroke-width:3;stroke-dasharray:none;stroke-opacity:1" />
  <path
     class="cls-1"
     d="m 5.5,53.5 h 8 v 8 c 0,1.65 1.35,3 3,3 1.65,0 3,-1.35 3,-3 v -8 h 8 c 1.65,0 3,-1.35 3,-3 0,-1.65 -1.35,-3 -3,-3 h -8 v -8 c 0,-1.65 -1.35,-3 -3,-3 -1.65,0 -3,1.35 -3,3 v 8 h -8 c -1.65,0 -3,1.35 -3,3 0,1.65 1.35,3 3,3 z"
     id="path2"
     style="fill:#ffffff;stroke:#ffffff;stroke-width:3;stroke-dasharray:none;stroke-opacity:1" />
</svg>
