<?xml version="1.0" encoding="UTF-8" standalone="no"?>
<svg
   version="1.1"
   x="0px"
   y="0px"
   viewBox="0 0 50 40"
   xml:space="preserve"
   id="svg6"
   sodipodi:docname="reports.svg"
   width="50"
   height="40"
   inkscape:version="1.3.2 (1:1.3.2+202311252150+091e20ef0f)"
   xmlns:inkscape="http://www.inkscape.org/namespaces/inkscape"
   xmlns:sodipodi="http://sodipodi.sourceforge.net/DTD/sodipodi-0.dtd"
   xmlns="http://www.w3.org/2000/svg"
   xmlns:svg="http://www.w3.org/2000/svg"><defs
     id="defs6"><clipPath
       clipPathUnits="userSpaceOnUse"
       id="clipPath11"><rect
         style="fill:#ffffff;fill-opacity:1;stroke-width:5.76887;stroke-linecap:square;stroke-linejoin:round"
         id="rect11"
         width="48.107388"
         height="45.39756"
         x="8.4483662"
         y="6.4152389"
         ry="0" /></clipPath><clipPath
       clipPathUnits="userSpaceOnUse"
       id="clipPath12"><rect
         style="fill:#ffffff;fill-opacity:1;stroke-width:5.76887;stroke-linecap:square;stroke-linejoin:round"
         id="rect12"
         width="48.107388"
         height="45.39756"
         x="8.4483662"
         y="6.4152389"
         ry="0" /></clipPath><clipPath
       clipPathUnits="userSpaceOnUse"
       id="clipPath13"><rect
         style="fill:#ffffff;fill-opacity:1;stroke-width:5.76887;stroke-linecap:square;stroke-linejoin:round"
         id="rect13"
         width="48.107388"
         height="45.39756"
         x="8.4483662"
         y="6.4152389"
         ry="0" /></clipPath><clipPath
       clipPathUnits="userSpaceOnUse"
       id="clipPath14"><rect
         style="fill:#ffffff;fill-opacity:1;stroke-width:5.76887;stroke-linecap:square;stroke-linejoin:round"
         id="rect14"
         width="48.107388"
         height="45.39756"
         x="8.4483662"
         y="6.4152389"
         ry="0" /></clipPath><clipPath
       clipPathUnits="userSpaceOnUse"
       id="clipPath15"><rect
         style="fill:#ffffff;fill-opacity:1;stroke-width:5.76887;stroke-linecap:square;stroke-linejoin:round"
         id="rect15"
         width="48.107388"
         height="45.39756"
         x="8.4483662"
         y="6.4152389"
         ry="0" /></clipPath></defs><sodipodi:namedview
     id="namedview6"
     pagecolor="#ffffff"
     bordercolor="#000000"
     borderopacity="0.25"
     inkscape:showpageshadow="2"
     inkscape:pageopacity="0.0"
     inkscape:pagecheckerboard="0"
     inkscape:deskcolor="#d1d1d1"
     inkscape:zoom="10.425"
     inkscape:cx="-7.5779376"
     inkscape:cy="43.932854"
     inkscape:window-width="1920"
     inkscape:window-height="1016"
     inkscape:window-x="0"
     inkscape:window-y="0"
     inkscape:window-maximized="1"
     inkscape:current-layer="g15" /><g
     id="g5"
     transform="translate(-11.1,-7.9)"><g
       id="g15"
       transform="translate(4.3759651,6.1861245)"><path
         d="M 51.7,18.8 42,9.1 C 41.2,8.3 40.2,7.9 39.1,7.9 H 15.2 c -2.3,0 -4.1,1.8 -4.1,4.1 v 40 c 0,2.3 1.8,4.1 4.1,4.1 h 33.6 c 2.3,0 4.1,-1.8 4.1,-4.1 V 21.7 c 0,-1.1 -0.4,-2.2 -1.2,-2.9 z M 49.9,52 c 0,0.6 -0.5,1.1 -1.1,1.1 H 15.2 c -0.6,0 -1.1,-0.5 -1.1,-1.1 V 12 c 0,-0.6 0.5,-1.1 1.1,-1.1 h 23.9 c 0.3,0 0.6,0.1 0.8,0.3 l 9.7,9.7 c 0.2,0.2 0.3,0.5 0.3,0.8 V 52 Z"
         id="path1"
         clip-path="url(#clipPath15)"
         transform="translate(-0.16786571,-2.7060851)" /><path
         d="m 20.3,37.2 c 3.5,0 7,0 10.4,0 0.5,0 1,0 1.5,0 1.9,0 1.9,-3 0,-3 -3.5,0 -7,0 -10.4,0 -0.5,0 -1,0 -1.5,0 -1.9,0 -1.9,3 0,3 z"
         id="path2"
         clip-path="url(#clipPath14)"
         transform="translate(-0.25197773,-3.7292676)" /><path
         d="m 43.7,39.7 c -6.8,0 -13.6,0 -20.4,0 -1,0 -1.9,0 -2.9,0 -1.9,0 -1.9,3 0,3 6.8,0 13.6,0 20.4,0 1,0 1.9,0 2.9,0 1.9,0 1.9,-3 0,-3 z"
         id="path3"
         clip-path="url(#clipPath13)"
         transform="translate(-0.16786571,-4.7060851)" /><path
         d="m 23.3,29.8 c 1.8,-1.8 3.6,-3.6 5.4,-5.4 1.8,1.8 3.6,3.6 5.4,5.4 0.6,0.6 1.5,0.6 2.1,0 2.2,-2.2 4.4,-4.4 6.6,-6.6 1.4,-1.4 -0.8,-3.5 -2.1,-2.1 -1.8,1.8 -3.7,3.7 -5.5,5.5 -1.8,-1.8 -3.6,-3.6 -5.4,-5.4 -0.6,-0.6 -1.5,-0.6 -2.1,0 -2.2,2.2 -4.3,4.3 -6.5,6.5 -1.4,1.4 0.7,3.5 2.1,2.1 z"
         id="path5"
         clip-path="url(#clipPath11)"
         style="fill:#044582;fill-opacity:1"
         transform="translate(0.03334832,-3.4948291)" /></g></g></svg>
