<?xml version="1.0" encoding="UTF-8" standalone="no"?>
<svg
   viewBox="0 0 20.00005 19.999987"
   fill="none"
   x="0px"
   y="0px"
   version="1.1"
   id="svg2"
   sodipodi:docname="reset.svg"
   width="20.00005"
   height="19.999987"
   inkscape:version="1.3.2 (1:1.3.2+202311252150+091e20ef0f)"
   xmlns:inkscape="http://www.inkscape.org/namespaces/inkscape"
   xmlns:sodipodi="http://sodipodi.sourceforge.net/DTD/sodipodi-0.dtd"
   xmlns="http://www.w3.org/2000/svg"
   xmlns:svg="http://www.w3.org/2000/svg">
  <defs
     id="defs2" />
  <sodipodi:namedview
     id="namedview2"
     pagecolor="#ffffff"
     bordercolor="#000000"
     borderopacity="0.25"
     inkscape:showpageshadow="2"
     inkscape:pageopacity="0.0"
     inkscape:pagecheckerboard="0"
     inkscape:deskcolor="#d1d1d1"
     inkscape:zoom="6.95"
     inkscape:cx="-16.115108"
     inkscape:cy="10.503597"
     inkscape:window-width="1920"
     inkscape:window-height="1016"
     inkscape:window-x="0"
     inkscape:window-y="0"
     inkscape:window-maximized="1"
     inkscape:current-layer="svg2" />
  <path
     fill-rule="evenodd"
     clip-rule="evenodd"
     d="m 3.75463,5.0000017 c 1.45695,-1.81748 3.69083,-2.98532 6.19797,-2.99986 0.0344,-2e-4 0.0687,-1.8e-4 0.1031,5e-5 2.1342,0.01455 4.0699,0.86479 5.4961,2.23984 0.0828,0.07975 0.1638,0.16131 0.2431,0.24465 1.3411,1.40864 2.1739,3.30566 2.2042,5.39692 0.0013,0.0828 0.0012,0.1656003 -10e-5,0.2485003 -0.0331,2.074 -0.8554,3.9562 -2.1796,5.3595 -0.1058,0.1121 -0.2149,0.2212 -0.3272,0.3273 -1.4056,1.3276 -3.2921,2.1513 -5.3708,2.1822 -0.0767,0.0012 -0.1536,0.0012 -0.2305,2e-4 -4.03108,-0.0539 -7.34242,-3.0892 -7.82925,-7.0013 -0.06821,-0.548 -0.50936,-0.998 -1.06165,-0.998 -0.55228,0 -1.00519,0.4488 -0.95006,0.9983 0.03382,0.3372 0.08467,0.6715 0.15208,1.0017 0.35448,1.7365 1.16692,3.3602 2.36951,4.6946 1.65539,1.8369 3.93262,2.9953 6.39207,3.2515 2.4594,0.2563 4.9265,-0.4077 6.925,-1.8638 1.9986,-1.4561 3.3868,-3.601 3.8966,-6.0206 0.5098,-2.4196003 0.105,-4.9422503 -1.1361,-7.0809303 -1.2411,-2.13869 -3.2306,-3.7417 -5.5843,-4.49954004 -2.3537,-0.75784 -4.9048,-0.61675 -7.16057,0.39602 C 4.34818,1.5758617 3.00873,2.6550617 2,3.9999717 v -1.99997 c 0,-0.55228 -0.44772,-1 -1,-1 -0.55228,0 -1,0.44772 -1,1 v 4 1 h 1 4 c 0.55228,0 1,-0.44772 1,-1 0,-0.55228 -0.44772,-1 -1,-1 z"
     fill="black"
     id="path1"
     style="fill:#044582;fill-opacity:1" />
</svg>
