<?xml version="1.0" encoding="UTF-8" standalone="no"?>
<svg
   width="124.00024"
   height="89.633003"
   viewBox="0 0 124.00024 89.633003"
   fill="none"
   version="1.1"
   id="svg4"
   sodipodi:docname="faviconv2.svg"
   inkscape:version="1.3.2 (1:1.3.2+202311252150+091e20ef0f)"
   xmlns:inkscape="http://www.inkscape.org/namespaces/inkscape"
   xmlns:sodipodi="http://sodipodi.sourceforge.net/DTD/sodipodi-0.dtd"
   xmlns="http://www.w3.org/2000/svg"
   xmlns:svg="http://www.w3.org/2000/svg">
  <sodipodi:namedview
     id="namedview4"
     pagecolor="#ffffff"
     bordercolor="#000000"
     borderopacity="0.25"
     inkscape:showpageshadow="2"
     inkscape:pageopacity="0.0"
     inkscape:pagecheckerboard="0"
     inkscape:deskcolor="#d1d1d1"
     inkscape:zoom="2.0823723"
     inkscape:cx="303.5"
     inkscape:cy="45.140823"
     inkscape:window-width="1920"
     inkscape:window-height="1016"
     inkscape:window-x="0"
     inkscape:window-y="0"
     inkscape:window-maximized="1"
     inkscape:current-layer="svg4" />
  <circle
     cx="62.928799"
     cy="44.816502"
     r="44.816502"
     fill="url(#paint0_linear_2620_122)"
     id="circle1"
     style="fill:url(#paint0_linear_2620_122)" />
  <path
     d="m 21.2383,11.3971 c 2.0528,1.8062 3.5529,4.0836 5.2898,6.2039 1.737,2.1204 3.9477,4.0051 6.711,4.4763 1.2632,0.2356 2.6054,0.3141 3.9476,0.4712 1.2633,0.157 2.9213,0.3141 3.3161,1.4135 0.0789,0.1571 0.0789,0.3142 0.0789,0.4712 0.079,0.7853 -0.7106,1.335 -0.3158,2.2774 1.8159,1.8848 5.053,4.3192 6.2373,5.7328 1.658,1.9632 1.8948,4.0051 1.8948,4.0051 0,0 12.1587,-1.8063 15.3958,-1.4921 0,0 5.053,-1.6492 8.4479,0.157 0.7896,0.4712 1.737,0.7068 2.6055,0.7853 0.5527,0.0786 1.0264,0.0786 1.579,0.0786 0,-0.7068 0.079,-1.3351 0.2369,-1.7277 0.079,-0.1571 0.1579,-0.3141 0.2369,-0.3927 0.8684,-0.7067 2.2896,-0.7067 2.2896,-0.7067 l 1.8159,-0.1571 1.5791,-0.1571 11.0533,-1.1779 1.5791,-0.1571 1.2632,-0.1571 c 0,0 3.3161,-0.3141 4.5008,2.513 l 1.579,-0.2356 0.473,0.6283 h 0.869 l 0.237,0.2356 c 0.079,0.4712 0.158,0.9423 0.079,1.335 l -0.237,0.2356 -0.711,0.0785 -0.395,0.6283 c 0.079,0.0785 0.079,0.2356 0.158,0.3141 0.869,-0.0785 1.737,-0.5497 2.053,-0.7853 0.316,-0.1571 0.395,-0.5497 0.79,-1.178 0.236,-0.3141 0.552,-0.7068 1.026,-1.0994 0.237,-0.2356 0.553,-0.4712 0.947,-0.7068 3.237,-2.1203 7.027,0.2356 7.501,3.1413 0.237,1.4135 -0.237,2.3559 -0.79,3.0627 l 0.474,1.8062 c 0.237,0.9423 -0.71,1.6491 -0.71,1.6491 0,0 -0.474,0.3141 -1.422,0.9424 -0.947,0.5497 -1.816,0 -1.816,0 l -0.868,-0.7853 c 0,0.3926 -0.158,0.6282 -0.395,0.8638 0,1.178 -0.868,2.356 -1.816,2.9057 -1.105,0.6282 -2.526,0.3926 -3.474,-0.3927 -0.552,-0.5497 -0.868,-1.2565 -1.105,-1.8847 -0.079,0.4712 -0.079,1.0209 -0.158,1.4135 0.474,1.4136 1.184,3.848 1.421,5.6542 0.395,2.5916 3.395,7.7746 3.395,7.7746 l 9.554,5.4186 c 0,0 0.868,-0.7067 1.184,-0.7853 0.316,-0.0785 0.868,-0.157 0.868,-0.157 0,0 0.711,-0.0786 0.79,0.2356 0.079,0.3141 -0.553,0.6282 -0.553,0.6282 l 1.342,1.0994 1.264,0.5498 0.789,0.4712 c 0,0 0.79,0.5497 0.553,0.8638 -0.237,0.3141 -0.869,-0.1571 -0.869,-0.1571 l -0.71,-0.2356 -0.395,-0.157 -0.079,0.157 1.184,1.178 0.79,0.9424 c 0,0 0.316,0.4712 0.158,0.7068 -0.158,0.2355 -0.553,-1e-4 -0.869,-0.2356 -0.316,-0.3142 -0.71,-0.6283 -0.71,-0.6283 l -0.711,-0.5497 -0.079,0.0785 0.711,0.8639 0.552,0.8638 c 0,0 0.632,0.7853 0.237,1.0994 -0.394,0.3142 -0.868,-0.6282 -0.868,-0.6282 l -0.553,-0.7068 c 0,0 -0.631,-0.5497 -0.631,-0.6282 l -0.158,0.0785 0.315,0.6282 0.158,0.8639 c 0,0 0.158,0.9424 -0.079,0.8638 -0.236,-0.0785 -0.552,-0.157 -0.71,-0.8638 l -0.395,-0.6283 -0.316,-0.3141 c 0,0 -1.658,-0.7853 -2.289,-1.6491 -0.632,-0.7854 -0.948,-1.0209 -0.948,-1.0995 0,0 -9.553,-2.5915 -11.764,-4.3977 -1.895,-1.5706 -6.6318,-9.8949 -7.895,-12.2508 -1.6581,0.5497 -3.474,0.8638 -5.3688,1.0209 0,0.3926 0,0.7853 0,0.8638 0,0.2356 0.0789,1.2565 0.1579,1.7277 0.0789,0.4712 0.1579,1.335 -0.1579,1.2565 -0.3158,-0.0785 -0.3948,-0.1571 -0.3948,-0.1571 l -0.0789,1.0995 c 0,0 -0.079,1.0994 -0.5527,0.8638 -0.4737,-0.1571 -0.3158,-1.4136 -0.3158,-1.4136 v -1.0994 l -0.079,-1.1779 -0.3158,-0.0786 -0.3158,1.178 -0.3158,1.0994 c 0,0 -0.2369,1.5706 -0.7895,1.2565 -0.5527,-0.3141 -0.1579,-1.4921 -0.1579,-1.4921 l 0.1579,-1.2565 0.0789,-1.2565 -0.3158,0.5498 -0.4737,0.9423 c 0,0 -0.3948,1.4921 -0.9474,1.2565 -0.5527,-0.2356 0,-1.335 0,-1.335 l 0.3947,-0.9424 0.4737,-1.2565 -0.2368,-0.2356 -0.7896,1.0995 c 0,0 -0.5526,1.0209 -0.8684,0.7067 -0.3158,-0.3141 0.3158,-1.0994 0.3158,-1.0994 l 0.6316,-1.0994 c -1.737,-0.0786 -3.316,-0.1571 -4.5003,-0.3142 -1.2633,-0.157 -2.0528,-0.2355 -2.0528,-0.2355 0,0 -0.3158,0 -0.7895,-0.0786 -1.2632,-0.0785 -3.7108,-0.2356 -4.1845,0 -0.6316,0.2356 -11.764,5.5757 -14.9221,5.8113 -3.1581,0.2356 -11.1323,1.4921 -11.1323,1.4921 0,0 -9.1585,-1.335 -15.3168,-2.0418 -1.4212,-0.1571 -2.6844,-0.3141 -3.6319,-0.3927 -0.5526,0.3927 -1.1842,0.6283 -1.658,0.6283 -1.579,0 -1.8948,0.6282 -2.2106,0.7068 -0.2369,0.0785 -1.9739,1.1779 -3.1581,1.4135 -1.6581,1.6492 -3.3161,4.0836 -4.9741,7.2249 C 15.1589,71.8659 8.13213,74.5359 6.00041,74.7715 5.76356,68.4105 4.26345,62.9134 0,59.1439 c 0,0 7.89527,2.8271 13.343,-1.7277 3.0792,-2.5915 7.5005,-3.5339 11.2902,-3.7695 2.6844,-0.157 6.0794,-3.5339 7.1848,-2.513 0,0 0.9474,0.8639 1.1053,1.6492 1.8159,-0.0785 5.2898,-0.1571 6.3952,-0.5497 1.2632,-0.4712 6.553,-0.8639 9.7901,0.2356 l 14.5273,-7.6175 c -5.053,-0.3927 -17.1327,-1.5707 -18.9487,-3.5339 -2.3685,-2.513 -4.8161,-7.2249 -6.1583,-9.4237 -0.7105,-1.0995 -1.8159,-2.2774 -2.6844,-3.2198 -0.3158,-0.3141 -0.6316,-0.6283 -0.9474,-0.9424 -1.3422,-0.7853 -4.6582,0 -6.2373,-1.335 -2.0527,-0.3927 -4.1055,-1.335 -6.0004,-2.2774 C 20.3698,23.0197 18.1591,21.8417 15.7116,21.2135 13.2641,20.5852 10.5007,20.4281 8.29004,21.6061 10.7376,17.6796 11.764,12.8106 11.0534,8.1773 14.6063,7.8632 18.396,9.0412 21.2383,11.3971 Z M 105.402,45.558 c 0.474,0.3927 1.184,0.5498 1.737,0.2356 0.553,-0.3141 1.026,-1.0209 1.026,-1.4921 -0.316,-0.157 -0.552,-0.4711 -0.71,-0.7067 -1.027,0 -1.816,-0.7853 -1.816,-0.7853 -0.474,0.0785 -0.869,0.157 -1.185,0.3141 0,0.0785 0,0.0785 0,0.157 v 0.1571 c 0.316,0.8638 0.474,1.6492 0.948,2.1203 z"
     fill="#044582"
     id="path1" />
  <defs
     id="defs4">
    <linearGradient
       id="paint0_linear_2620_122"
       x1="62.928799"
       y1="3"
       x2="62.928799"
       y2="92.633003"
       gradientUnits="userSpaceOnUse"
       gradientTransform="translate(0,-3)">
      <stop
         stop-color="#C8F2FF"
         id="stop2" />
      <stop
         offset="1"
         stop-color="#4EB4D3"
         id="stop3" />
      <stop
         offset="1.0001"
         stop-color="#72D2F0"
         id="stop4" />
    </linearGradient>
  </defs>
</svg>
