<?xml version="1.0" encoding="UTF-8" standalone="no"?>
<svg
   data-name="Layer 1"
   viewBox="0 0 28 28"
   x="0px"
   y="0px"
   version="1.1"
   id="svg3"
   sodipodi:docname="add.svg"
   width="28"
   height="28"
   inkscape:version="1.3.2 (1:1.3.2+202311252150+091e20ef0f)"
   xmlns:inkscape="http://www.inkscape.org/namespaces/inkscape"
   xmlns:sodipodi="http://sodipodi.sourceforge.net/DTD/sodipodi-0.dtd"
   xmlns="http://www.w3.org/2000/svg"
   xmlns:svg="http://www.w3.org/2000/svg">
  <sodipodi:namedview
     id="namedview3"
     pagecolor="#ffffff"
     bordercolor="#000000"
     borderopacity="0.25"
     inkscape:showpageshadow="2"
     inkscape:pageopacity="0.0"
     inkscape:pagecheckerboard="0"
     inkscape:deskcolor="#d1d1d1"
     inkscape:zoom="6.672"
     inkscape:cx="31.02518"
     inkscape:cy="9.2925659"
     inkscape:window-width="1920"
     inkscape:window-height="1016"
     inkscape:window-x="0"
     inkscape:window-y="0"
     inkscape:window-maximized="1"
     inkscape:current-layer="svg3" />
  <defs
     id="defs1">
    <style
       id="style1">
      .cls-1 {
        stroke-width: 0px;
      }
    </style>
  </defs>
  <path
     class="cls-1"
     d="m 3,17 h 8 v 8 c 0,1.65 1.35,3 3,3 1.65,0 3,-1.35 3,-3 v -8 h 8 c 1.65,0 3,-1.35 3,-3 0,-1.65 -1.35,-3 -3,-3 H 17 V 3 C 17,1.35 15.65,0 14,0 12.35,0 11,1.35 11,3 v 8 H 3 c -1.65,0 -3,1.35 -3,3 0,1.65 1.35,3 3,3 z"
     id="path2"
     style="fill:#ffffff;stroke:none;stroke-width:3;stroke-dasharray:none;stroke-opacity:1" />
</svg>
