<?xml version="1.0" encoding="UTF-8" standalone="no"?>
<svg
   version="1.1"
   x="0px"
   y="0px"
   viewBox="0 0 56.228767 56.412228"
   enable-background="new 0 0 100 100"
   xml:space="preserve"
   id="svg37"
   sodipodi:docname="link.svg"
   width="56.228767"
   height="56.412228"
   inkscape:version="1.3.2 (1:1.3.2+202311252150+091e20ef0f)"
   xmlns:inkscape="http://www.inkscape.org/namespaces/inkscape"
   xmlns:sodipodi="http://sodipodi.sourceforge.net/DTD/sodipodi-0.dtd"
   xmlns="http://www.w3.org/2000/svg"
   xmlns:svg="http://www.w3.org/2000/svg"><defs
     id="defs37" /><sodipodi:namedview
     id="namedview37"
     pagecolor="#ffffff"
     bordercolor="#000000"
     borderopacity="0.25"
     inkscape:showpageshadow="2"
     inkscape:pageopacity="0.0"
     inkscape:pagecheckerboard="0"
     inkscape:deskcolor="#d1d1d1"
     inkscape:zoom="1.668"
     inkscape:cx="73.141487"
     inkscape:cy="10.191847"
     inkscape:window-width="1920"
     inkscape:window-height="1016"
     inkscape:window-x="0"
     inkscape:window-y="0"
     inkscape:window-maximized="1"
     inkscape:current-layer="svg37" /><g
     id="g36"
     transform="rotate(-47.50551,15.291973,67.291683)"
     style="fill:#ffffff"><path
       d="M 84.351,45.865 58.422,14.762 C 57.488,13.643 56.115,13 54.656,13 c -1.141,0 -2.252,0.402 -3.129,1.133 -2.073,1.729 -2.354,4.822 -0.627,6.895 l 19.256,23.1 -50.258,-0.055 c -2.695,0 -4.893,2.193 -4.898,4.889 -0.004,2.697 2.188,4.896 4.889,4.902 l 50.23,0.055 -19.221,23.056 c -1.723,2.073 -1.441,5.164 0.629,6.889 0.878,0.732 1.991,1.136 3.132,1.136 h 10e-4 c 1.457,0 2.828,-0.643 3.761,-1.762 L 84.353,52.133 C 85.084,51.255 85.486,50.142 85.486,49 85.485,47.855 85.082,46.74 84.351,45.865 Z"
       id="path35"
       style="fill:#ffffff" /></g></svg>
