<?xml version="1.0" encoding="UTF-8" standalone="no"?>
<svg
   data-name="Layer 1"
   viewBox="0 0 50 40"
   x="0px"
   y="0px"
   version="1.1"
   id="svg3"
   sodipodi:docname="sites.svg"
   width="50"
   height="40"
   inkscape:version="1.3.2 (1:1.3.2+202311252150+091e20ef0f)"
   xmlns:inkscape="http://www.inkscape.org/namespaces/inkscape"
   xmlns:sodipodi="http://sodipodi.sourceforge.net/DTD/sodipodi-0.dtd"
   xmlns="http://www.w3.org/2000/svg"
   xmlns:svg="http://www.w3.org/2000/svg"
   xmlns:rdf="http://www.w3.org/1999/02/22-rdf-syntax-ns#"
   xmlns:cc="http://creativecommons.org/ns#"
   xmlns:dc="http://purl.org/dc/elements/1.1/">
  <defs
     id="defs3">
    <rect
       x="12.216821"
       y="14.034233"
       width="64.765297"
       height="64.008522"
       id="rect3" />
    <clipPath
       clipPathUnits="userSpaceOnUse"
       id="clipPath4">
      <rect
         style="fill:#ffffff;fill-opacity:1;stroke-width:2.65272;stroke-linecap:square;stroke-linejoin:round"
         id="rect5"
         width="64.984711"
         height="58.876713"
         x="15.050991"
         y="17.879366"
         ry="0" />
    </clipPath>
    <clipPath
       clipPathUnits="userSpaceOnUse"
       id="clipPath5">
      <rect
         style="fill:#ffffff;fill-opacity:1;stroke-width:2.65272;stroke-linecap:square;stroke-linejoin:round"
         id="rect6"
         width="64.984711"
         height="58.876713"
         x="19.037706"
         y="26.189785"
         ry="0" />
    </clipPath>
    <clipPath
       clipPathUnits="userSpaceOnUse"
       id="clipPath6">
      <rect
         style="fill:#ffffff;fill-opacity:1;stroke-width:2.65272;stroke-linecap:square;stroke-linejoin:round"
         id="rect7"
         width="64.984711"
         height="58.876713"
         x="15.050991"
         y="17.879366"
         ry="0" />
    </clipPath>
  </defs>
  <sodipodi:namedview
     id="namedview3"
     pagecolor="#ffffff"
     bordercolor="#000000"
     borderopacity="0.25"
     inkscape:showpageshadow="2"
     inkscape:pageopacity="0.0"
     inkscape:pagecheckerboard="0"
     inkscape:deskcolor="#d1d1d1"
     inkscape:zoom="4.7178164"
     inkscape:cx="48.327442"
     inkscape:cy="50.870992"
     inkscape:window-width="1920"
     inkscape:window-height="1016"
     inkscape:window-x="0"
     inkscape:window-y="0"
     inkscape:window-maximized="1"
     inkscape:current-layer="svg3" />
  <title
     id="title1">Artboard 45</title>
  <path
     d="m 30,89 h 13 c 3.999998,0 3.999998,-6 0,-6 H 30 c -2.761424,0 -5,-2.238576 -5,-5 V 30.22 c 0.0027,-1.454489 0.598627,-2.844933 1.65,-3.85 0.963938,-0.92695 2.263679,-1.421574 3.6,-1.37 h 23.5 c 1.335632,-0.05894 2.636956,0.432675 3.6,1.36 1.05388,1.007469 1.650004,2.402037 1.65,3.86 v 3 c 0,2.27 1.21,3.78 3,3.78 1.656854,0 3,-1.343146 3,-3 V 30 C 65,23.924868 60.075132,19 54,19 H 30 c -6.075132,0 -11,4.924868 -11,11 v 48 c 0,6.075132 4.924868,11 11,11 z"
     id="path1"
     sodipodi:nodetypes="ssssscccccssssssssss"
     clip-path="url(#clipPath6)"
     transform="matrix(0.75914338,0,0,0.75914338,-9.1549352,-10.514009)" />
  <g
     id="g3"
     transform="matrix(0.48955669,0,0,0.48955669,6.081596,-2.6937553)"
     clip-path="url(#clipPath5)">
    <path
       d="m 66.5,47 h -1 A 14.94,14.94 0 0 0 51,62 c 0,6.46 4.35,12 8.8,17.17 a 8.2,8.2 0 0 0 12.4,0 C 76.65,74 81,68.46 81,62 A 14.93,14.93 0 0 0 66.5,47 Z m 1.16,28.23 a 2.28,2.28 0 0 1 -3.32,0 C 60.63,71 57,66.4 57,62 a 9,9 0 0 1 8.65,-9 h 0.65 a 9,9 0 0 1 8.7,9 c 0,4.4 -3.62,9 -7.34,13.24 z"
       id="path2"
       style="fill:#044582;fill-opacity:1" />
    <circle
       cx="66"
       cy="62"
       r="3"
       id="circle2"
       style="fill:#044582;fill-opacity:1" />
  </g>
  <text
     xml:space="preserve"
     id="text3"
     style="font-size:28px;white-space:pre;shape-inside:url(#rect3);fill:#044582;fill-opacity:1;stroke-width:2.8;stroke-linecap:square;stroke-linejoin:round"
     clip-path="url(#clipPath4)"
     transform="matrix(0.75914338,0,0,0.75914338,-10.540971,-12.84808)" />
  <metadata
     id="metadata7">
    <rdf:RDF>
      <cc:Work
         rdf:about="">
        <dc:title>Artboard 45</dc:title>
      </cc:Work>
    </rdf:RDF>
  </metadata>
</svg>
