<?xml version="1.0" encoding="UTF-8" standalone="no"?>
<svg
   version="1.1"
   x="0px"
   y="0px"
   viewBox="0 0 50 40"
   xml:space="preserve"
   id="svg5"
   sodipodi:docname="users.svg"
   width="50"
   height="40"
   inkscape:version="1.3.2 (1:1.3.2+202311252150+091e20ef0f)"
   xmlns:inkscape="http://www.inkscape.org/namespaces/inkscape"
   xmlns:sodipodi="http://sodipodi.sourceforge.net/DTD/sodipodi-0.dtd"
   xmlns="http://www.w3.org/2000/svg"
   xmlns:svg="http://www.w3.org/2000/svg"><defs
     id="defs5" /><sodipodi:namedview
     id="namedview5"
     pagecolor="#ffffff"
     bordercolor="#000000"
     borderopacity="0.25"
     inkscape:showpageshadow="2"
     inkscape:pageopacity="0.0"
     inkscape:pagecheckerboard="0"
     inkscape:deskcolor="#d1d1d1"
     inkscape:zoom="6.672"
     inkscape:cx="27.727818"
     inkscape:cy="34.022782"
     inkscape:window-width="1920"
     inkscape:window-height="1016"
     inkscape:window-x="0"
     inkscape:window-y="0"
     inkscape:window-maximized="1"
     inkscape:current-layer="g1" /><g
     id="g4"
     transform="translate(-22.5,-28.75242)"><g
       id="g1"
       transform="matrix(0.90434499,0,0,0.90434499,2.4268227,15.096374)"><path
         d="m 39.290447,41.526546 c 5.060268,0 9.176861,-4.11713 9.176861,-9.177399 0,-5.060268 -4.116593,-9.176864 -9.176861,-9.176864 -5.060268,0 -9.176863,4.116592 -9.176863,9.176864 0,5.060273 4.116591,9.177399 9.176863,9.177399 z m 0,-15.041145 c 3.233311,0 5.863743,2.630436 5.863743,5.863746 0,3.233849 -2.630432,5.864281 -5.863743,5.864281 -3.233311,0 -5.863747,-2.630432 -5.863747,-5.864281 0,-3.23331 2.630436,-5.863746 5.863747,-5.863746 z"
         id="path1" /><path
         d="m 23.755352,61.438505 c 0.898382,0.171476 1.762251,-0.46708 1.924024,-1.430688 1.186339,-7.047198 6.910959,-12.16199 13.611609,-12.16199 6.701191,0 12.425812,5.114792 13.61161,12.16199 0.143978,0.857375 0.841759,1.459556 1.62798,1.459556 0.0976,0 0.196285,-0.0092 0.296043,-0.02886 0.900001,-0.173206 1.498562,-1.095826 1.33625,-2.060005 -1.469982,-8.737694 -8.565899,-15.079944 -16.871883,-15.079944 -8.305443,0 -15.40136,6.34225 -16.87188,15.079944 -0.162313,0.964179 0.435709,1.886219 1.336247,2.060005 z"
         id="path2"
         style="stroke-width:1.03473" /><path
         d="m 53.691509,44.332782 c 2.064766,-1.238089 4.41695,-1.892545 6.80257,-1.892545 6.700653,0 12.42527,5.059162 13.611611,12.02971 0.143974,0.848047 0.841758,1.443677 1.627975,1.443677 0.0976,0 0.196823,-0.0097 0.296044,-0.02855 0.900543,-0.171888 1.498565,-1.083898 1.33625,-2.037596 -1.47052,-8.642657 -8.566437,-14.915926 -16.87188,-14.915926 -2.956676,0 -5.873451,0.812072 -8.435402,2.348263 -0.795925,0.477421 -1.075794,1.547616 -0.624984,2.391098 0.450809,0.842904 1.461353,1.140437 2.257816,0.661872 z"
         id="path4"
         style="fill:#044582;fill-opacity:1;stroke-width:1.02909" /><g
         id="g2"
         transform="translate(-0.1074677,-3.1455718)"><path
           d="m 60.601006,38.260506 c 5.060272,0 9.176864,-4.117135 9.176864,-9.177403 0,-5.060268 -4.116592,-9.176863 -9.176864,-9.176863 -5.060273,0 -9.177399,4.116591 -9.177399,9.176863 0,5.060272 4.11713,9.177403 9.177399,9.177403 z m 0,-15.04115 c 3.23331,0 5.863746,2.630436 5.863746,5.863747 0,3.233849 -2.630436,5.864285 -5.863746,5.864285 -3.233307,0 -5.864281,-2.630436 -5.864281,-5.864285 0,-3.233311 2.630974,-5.863747 5.864281,-5.863747 z"
           id="path3"
           style="fill:#044582;fill-opacity:1" /><path
           style="fill:#044582;fill-opacity:1;stroke:none;stroke-width:2.8;stroke-linecap:square;stroke-linejoin:round"
           d="m 52.815591,29.057122 3.751101,-6.447186 7.395646,-0.911575 4.688437,6.123422 -3.879319,7.909687 -8.713537,-0.185008 z"
           id="path6" /></g></g></g></svg>
